{
    "asset" : {
        "generator" : "Khronos glTF Blender I/O v1.1.45",
        "version" : "2.0"
    },
    "scene" : 0,
    "scenes" : [
        {
            "name" : "Scene",
            "nodes" : [
                0
            ]
        }
    ],
    "nodes" : [
        {
            "mesh" : 0,
            "name" : "\u67f1\u4f53.006",
            "rotation" : [
                -0.5167098045349121,
                0.5934991240501404,
                0.527450442314148,
                0.3202589452266693
            ],
            "scale" : [
                -0.547848641872406,
                -0.10956971347332001,
                -0.5478485822677612
            ],
            "translation" : [
                0.021088600158691406,
                7.7247161865234375,
                0.03882414102554321
            ]
        }
    ],
    "animations" : [
        {
            "channels" : [
                {
                    "sampler" : 0,
                    "target" : {
                        "node" : 0,
                        "path" : "translation"
                    }
                }
            ],
            "name" : "\u67f1\u4f53.006Action",
            "samplers" : [
                {
                    "input" : 30,
                    "interpolation" : "LINEAR",
                    "output" : 31
                }
            ]
        }
    ],
    "materials" : [
        {
            "doubleSided" : true,
            "emissiveFactor" : [
                1,
                1,
                1
            ],
            "name" : "\u6750\u8d28.002",
            "pbrMetallicRoughness" : {
                "baseColorFactor" : [
                    0.800000011920929,
                    0.800000011920929,
                    0.800000011920929,
                    1
                ],
                "metallicFactor" : 0,
                "roughnessFactor" : 0.5
            }
        },
        {
            "doubleSided" : true,
            "emissiveFactor" : [
                0,
                0,
                0
            ],
            "name" : "\u6750\u8d28.001",
            "pbrMetallicRoughness" : {
                "baseColorFactor" : [
                    0.44765961170196533,
                    0.44765961170196533,
                    0.44765961170196533,
                    1
                ],
                "metallicFactor" : 0,
                "roughnessFactor" : 0.5
            }
        },
        {
            "doubleSided" : true,
            "emissiveFactor" : [
                1,
                0.4165412187576294,
                0.030642064288258553
            ],
            "name" : "\u6750\u8d28",
            "pbrMetallicRoughness" : {
                "baseColorFactor" : [
                    0.8000000715255737,
                    0.4504002630710602,
                    0.10021025687456131,
                    1
                ],
                "metallicFactor" : 1,
                "roughnessFactor" : 0.21515151858329773
            }
        },
        {
            "doubleSided" : true,
            "emissiveFactor" : [
                0,
                0,
                0
            ],
            "name" : "\u6750\u8d28.003",
            "pbrMetallicRoughness" : {
                "baseColorFactor" : [
                    0.800000011920929,
                    0.800000011920929,
                    0.800000011920929,
                    1
                ],
                "metallicFactor" : 0,
                "roughnessFactor" : 0.5
            }
        },
        {
            "doubleSided" : true,
            "emissiveFactor" : [
                0,
                0,
                0
            ],
            "name" : "\u6750\u8d28.005",
            "pbrMetallicRoughness" : {
                "baseColorFactor" : [
                    0.800000011920929,
                    0.800000011920929,
                    0.800000011920929,
                    1
                ],
                "metallicFactor" : 0,
                "roughnessFactor" : 0.5
            }
        },
        {
            "doubleSided" : true,
            "emissiveFactor" : [
                0,
                0,
                0
            ],
            "name" : "\u6750\u8d28.006",
            "pbrMetallicRoughness" : {
                "baseColorFactor" : [
                    0.10929526388645172,
                    0.10929526388645172,
                    0.10929526388645172,
                    1
                ],
                "metallicFactor" : 1,
                "roughnessFactor" : 0.1303030252456665
            }
        }
    ],
    "meshes" : [
        {
            "name" : "\u67f1\u4f53.009",
            "primitives" : [
                {
                    "attributes" : {
                        "POSITION" : 0,
                        "NORMAL" : 1,
                        "TEXCOORD_0" : 2,
                        "TEXCOORD_1" : 3
                    },
                    "indices" : 4,
                    "material" : 0
                },
                {
                    "attributes" : {
                        "POSITION" : 5,
                        "NORMAL" : 6,
                        "TEXCOORD_0" : 7,
                        "TEXCOORD_1" : 8
                    },
                    "indices" : 9,
                    "material" : 1
                },
                {
                    "attributes" : {
                        "POSITION" : 10,
                        "NORMAL" : 11,
                        "TEXCOORD_0" : 12,
                        "TEXCOORD_1" : 13
                    },
                    "indices" : 14,
                    "material" : 2
                },
                {
                    "attributes" : {
                        "POSITION" : 15,
                        "NORMAL" : 16,
                        "TEXCOORD_0" : 17,
                        "TEXCOORD_1" : 18
                    },
                    "indices" : 19,
                    "material" : 3
                },
                {
                    "attributes" : {
                        "POSITION" : 20,
                        "NORMAL" : 21,
                        "TEXCOORD_0" : 22,
                        "TEXCOORD_1" : 23
                    },
                    "indices" : 24,
                    "material" : 4
                },
                {
                    "attributes" : {
                        "POSITION" : 25,
                        "NORMAL" : 26,
                        "TEXCOORD_0" : 27,
                        "TEXCOORD_1" : 28
                    },
                    "indices" : 29,
                    "material" : 5
                }
            ]
        }
    ],
    "accessors" : [
        {
            "bufferView" : 0,
            "componentType" : 5126,
            "count" : 1253,
            "max" : [
                9.056899070739746,
                29.401283264160156,
                0.5218563079833984
            ],
            "min" : [
                -2.080653190612793,
                -19.592403411865234,
                -15.24586296081543
            ],
            "type" : "VEC3"
        },
        {
            "bufferView" : 1,
            "componentType" : 5126,
            "count" : 1253,
            "type" : "VEC3"
        },
        {
            "bufferView" : 2,
            "componentType" : 5126,
            "count" : 1253,
            "type" : "VEC2"
        },
        {
            "bufferView" : 3,
            "componentType" : 5126,
            "count" : 1253,
            "type" : "VEC2"
        },
        {
            "bufferView" : 4,
            "componentType" : 5123,
            "count" : 1893,
            "type" : "SCALAR"
        },
        {
            "bufferView" : 5,
            "componentType" : 5126,
            "count" : 6701,
            "max" : [
                4.732618808746338,
                16.438152313232422,
                -3.6521475315093994
            ],
            "min" : [
                -0.9109753370285034,
                -10.943801879882812,
                -9.295673370361328
            ],
            "type" : "VEC3"
        },
        {
            "bufferView" : 6,
            "componentType" : 5126,
            "count" : 6701,
            "type" : "VEC3"
        },
        {
            "bufferView" : 7,
            "componentType" : 5126,
            "count" : 6701,
            "type" : "VEC2"
        },
        {
            "bufferView" : 8,
            "componentType" : 5126,
            "count" : 6701,
            "type" : "VEC2"
        },
        {
            "bufferView" : 9,
            "componentType" : 5123,
            "count" : 39846,
            "type" : "SCALAR"
        },
        {
            "bufferView" : 10,
            "componentType" : 5126,
            "count" : 204,
            "max" : [
                3.9581902027130127,
                13.536857604980469,
                -8.974008560180664
            ],
            "min" : [
                2.3088865280151367,
                -2.174211025238037,
                -12.302330017089844
            ],
            "type" : "VEC3"
        },
        {
            "bufferView" : 11,
            "componentType" : 5126,
            "count" : 204,
            "type" : "VEC3"
        },
        {
            "bufferView" : 12,
            "componentType" : 5126,
            "count" : 204,
            "type" : "VEC2"
        },
        {
            "bufferView" : 13,
            "componentType" : 5126,
            "count" : 204,
            "type" : "VEC2"
        },
        {
            "bufferView" : 14,
            "componentType" : 5123,
            "count" : 396,
            "type" : "SCALAR"
        },
        {
            "bufferView" : 15,
            "componentType" : 5126,
            "count" : 20,
            "max" : [
                7.855045318603516,
                23.99188995361328,
                0.2906341552734375
            ],
            "min" : [
                -1.9397753477096558,
                -15.433145523071289,
                -15.075593948364258
            ],
            "type" : "VEC3"
        },
        {
            "bufferView" : 16,
            "componentType" : 5126,
            "count" : 20,
            "type" : "VEC3"
        },
        {
            "bufferView" : 17,
            "componentType" : 5126,
            "count" : 20,
            "type" : "VEC2"
        },
        {
            "bufferView" : 18,
            "componentType" : 5126,
            "count" : 20,
            "type" : "VEC2"
        },
        {
            "bufferView" : 19,
            "componentType" : 5123,
            "count" : 30,
            "type" : "SCALAR"
        },
        {
            "bufferView" : 20,
            "componentType" : 5126,
            "count" : 819,
            "max" : [
                3.3522465229034424,
                4.818966865539551,
                -9.020736694335938
            ],
            "min" : [
                1.7022038698196411,
                -0.0037317276000976562,
                -10.863096237182617
            ],
            "type" : "VEC3"
        },
        {
            "bufferView" : 21,
            "componentType" : 5126,
            "count" : 819,
            "type" : "VEC3"
        },
        {
            "bufferView" : 22,
            "componentType" : 5126,
            "count" : 819,
            "type" : "VEC2"
        },
        {
            "bufferView" : 23,
            "componentType" : 5126,
            "count" : 819,
            "type" : "VEC2"
        },
        {
            "bufferView" : 24,
            "componentType" : 5123,
            "count" : 3006,
            "type" : "SCALAR"
        },
        {
            "bufferView" : 25,
            "componentType" : 5126,
            "count" : 80,
            "max" : [
                2.560178756713867,
                4.751510143280029,
                -10.303033828735352
            ],
            "min" : [
                2.202218532562256,
                2.1402268409729004,
                -10.821575164794922
            ],
            "type" : "VEC3"
        },
        {
            "bufferView" : 26,
            "componentType" : 5126,
            "count" : 80,
            "type" : "VEC3"
        },
        {
            "bufferView" : 27,
            "componentType" : 5126,
            "count" : 80,
            "type" : "VEC2"
        },
        {
            "bufferView" : 28,
            "componentType" : 5126,
            "count" : 80,
            "type" : "VEC2"
        },
        {
            "bufferView" : 29,
            "componentType" : 5123,
            "count" : 378,
            "type" : "SCALAR"
        },
        {
            "bufferView" : 30,
            "componentType" : 5126,
            "count" : 20,
            "max" : [
                0.8333333333333334
            ],
            "min" : [
                0.041666666666666664
            ],
            "type" : "SCALAR"
        },
        {
            "bufferView" : 31,
            "componentType" : 5126,
            "count" : 20,
            "type" : "VEC3"
        }
    ],
    "bufferViews" : [
        {
            "buffer" : 0,
            "byteLength" : 15036,
            "byteOffset" : 0
        },
        {
            "buffer" : 0,
            "byteLength" : 15036,
            "byteOffset" : 15036
        },
        {
            "buffer" : 0,
            "byteLength" : 10024,
            "byteOffset" : 30072
        },
        {
            "buffer" : 0,
            "byteLength" : 10024,
            "byteOffset" : 40096
        },
        {
            "buffer" : 0,
            "byteLength" : 3786,
            "byteOffset" : 50120
        },
        {
            "buffer" : 0,
            "byteLength" : 80412,
            "byteOffset" : 53908
        },
        {
            "buffer" : 0,
            "byteLength" : 80412,
            "byteOffset" : 134320
        },
        {
            "buffer" : 0,
            "byteLength" : 53608,
            "byteOffset" : 214732
        },
        {
            "buffer" : 0,
            "byteLength" : 53608,
            "byteOffset" : 268340
        },
        {
            "buffer" : 0,
            "byteLength" : 79692,
            "byteOffset" : 321948
        },
        {
            "buffer" : 0,
            "byteLength" : 2448,
            "byteOffset" : 401640
        },
        {
            "buffer" : 0,
            "byteLength" : 2448,
            "byteOffset" : 404088
        },
        {
            "buffer" : 0,
            "byteLength" : 1632,
            "byteOffset" : 406536
        },
        {
            "buffer" : 0,
            "byteLength" : 1632,
            "byteOffset" : 408168
        },
        {
            "buffer" : 0,
            "byteLength" : 792,
            "byteOffset" : 409800
        },
        {
            "buffer" : 0,
            "byteLength" : 240,
            "byteOffset" : 410592
        },
        {
            "buffer" : 0,
            "byteLength" : 240,
            "byteOffset" : 410832
        },
        {
            "buffer" : 0,
            "byteLength" : 160,
            "byteOffset" : 411072
        },
        {
            "buffer" : 0,
            "byteLength" : 160,
            "byteOffset" : 411232
        },
        {
            "buffer" : 0,
            "byteLength" : 60,
            "byteOffset" : 411392
        },
        {
            "buffer" : 0,
            "byteLength" : 9828,
            "byteOffset" : 411452
        },
        {
            "buffer" : 0,
            "byteLength" : 9828,
            "byteOffset" : 421280
        },
        {
            "buffer" : 0,
            "byteLength" : 6552,
            "byteOffset" : 431108
        },
        {
            "buffer" : 0,
            "byteLength" : 6552,
            "byteOffset" : 437660
        },
        {
            "buffer" : 0,
            "byteLength" : 6012,
            "byteOffset" : 444212
        },
        {
            "buffer" : 0,
            "byteLength" : 960,
            "byteOffset" : 450224
        },
        {
            "buffer" : 0,
            "byteLength" : 960,
            "byteOffset" : 451184
        },
        {
            "buffer" : 0,
            "byteLength" : 640,
            "byteOffset" : 452144
        },
        {
            "buffer" : 0,
            "byteLength" : 640,
            "byteOffset" : 452784
        },
        {
            "buffer" : 0,
            "byteLength" : 756,
            "byteOffset" : 453424
        },
        {
            "buffer" : 0,
            "byteLength" : 80,
            "byteOffset" : 454180
        },
        {
            "buffer" : 0,
            "byteLength" : 240,
            "byteOffset" : 454260
        }
    ],
    "buffers" : [
        {
            "byteLength" : 454500,
            "uri" : "data:application/octet-stream;base64,"
        }
    ]
}
