{
    "asset" : {
        "generator" : "Khronos glTF Blender I/O v1.1.45",
        "version" : "2.0"
    },
    "scene" : 0,
    "scenes" : [
        {
            "name" : "Scene",
            "nodes" : [
                0,
                1,
                2,
                3
            ]
        }
    ],
    "nodes" : [
        {
            "name" : "Light",
            "rotation" : [
                0.16907575726509094,
                0.7558803558349609,
                -0.27217137813568115,
                0.570947527885437
            ],
            "translation" : [
                4.076245307922363,
                5.903861999511719,
                -1.0054539442062378
            ]
        },
        {
            "name" : "Camera",
            "rotation" : [
                0.483536034822464,
                0.33687159419059753,
                -0.20870360732078552,
                0.7804827094078064
            ],
            "translation" : [
                7.358891487121582,
                4.958309173583984,
                6.925790786743164
            ]
        },
        {
            "mesh" : 0,
            "name" : "Plane",
            "rotation" : [
                0,
                0,
                0.007787924259901047,
                0.9999696612358093
            ],
            "scale" : [
                1,
                1,
                1.415089726448059
            ],
            "translation" : [
                -1.001981496810913,
                0.6160924434661865,
                0.0011733472347259521
            ]
        },
        {
            "mesh" : 1,
            "name" : "Plane.001",
            "scale" : [
                1,
                1,
                1.415089726448059
            ],
            "translation" : [
                0,
                0.5418640375137329,
                0
            ]
        }
    ],
    "animations" : [
        {
            "channels" : [
                {
                    "sampler" : 0,
                    "target" : {
                        "node" : 2,
                        "path" : "rotation"
                    }
                }
            ],
            "name" : "PlaneAction",
            "samplers" : [
                {
                    "input" : 14,
                    "interpolation" : "LINEAR",
                    "output" : 15
                }
            ]
        }
    ],
    "materials" : [
        {
            "doubleSided" : true,
            "emissiveFactor" : [
                0,
                0,
                0
            ],
            "name" : "Material.001",
            "pbrMetallicRoughness" : {
                "baseColorTexture" : {
                    "index" : 0,
                    "texCoord" : 0
                },
                "metallicFactor" : 0,
                "roughnessFactor" : 0.5
            }
        },
        {
            "doubleSided" : true,
            "emissiveFactor" : [
                0,
                0,
                0
            ],
            "name" : "Material.002",
            "pbrMetallicRoughness" : {
                "baseColorTexture" : {
                    "index" : 1,
                    "texCoord" : 0
                },
                "metallicFactor" : 0,
                "roughnessFactor" : 0.5
            }
        }
    ],
    "meshes" : [
        {
            "name" : "Plane",
            "primitives" : [
                {
                    "attributes" : {
                        "POSITION" : 0,
                        "NORMAL" : 1,
                        "TEXCOORD_0" : 2
                    },
                    "indices" : 3,
                    "material" : 0
                },
                {
                    "attributes" : {
                        "POSITION" : 4,
                        "NORMAL" : 5,
                        "TEXCOORD_0" : 6
                    },
                    "indices" : 7,
                    "material" : 1
                }
            ]
        },
        {
            "extras" : {
                "targetNames" : [
                    "Key 1"
                ]
            },
            "name" : "Plane.001",
            "primitives" : [
                {
                    "attributes" : {
                        "POSITION" : 8,
                        "NORMAL" : 9,
                        "TEXCOORD_0" : 10
                    },
                    "indices" : 11,
                    "material" : 0,
                    "targets" : [
                        {
                            "POSITION" : 12,
                            "NORMAL" : 13
                        }
                    ]
                }
            ],
            "weights" : [
                0.9990000128746033
            ]
        }
    ],
    "textures" : [
        {
            "source" : 0
        },
        {
            "source" : 1
        }
    ],
    "images" : [
        {
            "mimeType" : "image/jpeg",
            "name" : "mmexport1610024579997",
            "uri" : "mmexport1610024579997.jpg"
        },
        {
            "mimeType" : "image/jpeg",
            "name" : "u=945795947,606755641&fm=26&gp=0",
            "uri" : "u%3D945795947606755641fm%3D26gp%3D0.jpg"
        }
    ],
    "accessors" : [
        {
            "bufferView" : 0,
            "componentType" : 5126,
            "count" : 1152,
            "max" : [
                0.12570835649967194,
                0.06892432272434235,
                0.7554202079772949
            ],
            "min" : [
                0.06051913648843765,
                -0.005313761532306671,
                -0.7376482486724854
            ],
            "type" : "VEC3"
        },
        {
            "bufferView" : 1,
            "componentType" : 5126,
            "count" : 1152,
            "type" : "VEC3"
        },
        {
            "bufferView" : 2,
            "componentType" : 5126,
            "count" : 1152,
            "type" : "VEC2"
        },
        {
            "bufferView" : 3,
            "componentType" : 5123,
            "count" : 1728,
            "type" : "SCALAR"
        },
        {
            "bufferView" : 4,
            "componentType" : 5126,
            "count" : 672,
            "max" : [
                2.001981496810913,
                0.06892432272434235,
                0.9991708397865295
            ],
            "min" : [
                0.001981496810913086,
                -0.005313761532306671,
                -1.0008292198181152
            ],
            "type" : "VEC3"
        },
        {
            "bufferView" : 5,
            "componentType" : 5126,
            "count" : 672,
            "type" : "VEC3"
        },
        {
            "bufferView" : 6,
            "componentType" : 5126,
            "count" : 672,
            "type" : "VEC2"
        },
        {
            "bufferView" : 7,
            "componentType" : 5123,
            "count" : 1872,
            "type" : "SCALAR"
        },
        {
            "bufferView" : 8,
            "componentType" : 5126,
            "count" : 4,
            "max" : [
                1,
                0.07423806935548782,
                1
            ],
            "min" : [
                -1,
                0.07423806935548782,
                -1
            ],
            "type" : "VEC3"
        },
        {
            "bufferView" : 9,
            "componentType" : 5126,
            "count" : 4,
            "type" : "VEC3"
        },
        {
            "bufferView" : 10,
            "componentType" : 5126,
            "count" : 4,
            "type" : "VEC2"
        },
        {
            "bufferView" : 11,
            "componentType" : 5123,
            "count" : 6,
            "type" : "SCALAR"
        },
        {
            "bufferView" : 12,
            "componentType" : 5126,
            "count" : 4,
            "max" : [
                0,
                0,
                0
            ],
            "min" : [
                0,
                0,
                0
            ],
            "type" : "VEC3"
        },
        {
            "bufferView" : 13,
            "componentType" : 5126,
            "count" : 4,
            "type" : "VEC3"
        },
        {
            "bufferView" : 14,
            "componentType" : 5126,
            "count" : 200,
            "max" : [
                8.333333333333334
            ],
            "min" : [
                0.041666666666666664
            ],
            "type" : "SCALAR"
        },
        {
            "bufferView" : 15,
            "componentType" : 5126,
            "count" : 200,
            "type" : "VEC4"
        }
    ],
    "bufferViews" : [
        {
            "buffer" : 0,
            "byteLength" : 13824,
            "byteOffset" : 0
        },
        {
            "buffer" : 0,
            "byteLength" : 13824,
            "byteOffset" : 13824
        },
        {
            "buffer" : 0,
            "byteLength" : 9216,
            "byteOffset" : 27648
        },
        {
            "buffer" : 0,
            "byteLength" : 3456,
            "byteOffset" : 36864
        },
        {
            "buffer" : 0,
            "byteLength" : 8064,
            "byteOffset" : 40320
        },
        {
            "buffer" : 0,
            "byteLength" : 8064,
            "byteOffset" : 48384
        },
        {
            "buffer" : 0,
            "byteLength" : 5376,
            "byteOffset" : 56448
        },
        {
            "buffer" : 0,
            "byteLength" : 3744,
            "byteOffset" : 61824
        },
        {
            "buffer" : 0,
            "byteLength" : 48,
            "byteOffset" : 65568
        },
        {
            "buffer" : 0,
            "byteLength" : 48,
            "byteOffset" : 65616
        },
        {
            "buffer" : 0,
            "byteLength" : 32,
            "byteOffset" : 65664
        },
        {
            "buffer" : 0,
            "byteLength" : 12,
            "byteOffset" : 65696
        },
        {
            "buffer" : 0,
            "byteLength" : 48,
            "byteOffset" : 65708
        },
        {
            "buffer" : 0,
            "byteLength" : 48,
            "byteOffset" : 65756
        },
        {
            "buffer" : 0,
            "byteLength" : 800,
            "byteOffset" : 65804
        },
        {
            "buffer" : 0,
            "byteLength" : 3200,
            "byteOffset" : 66604
        }
    ],
    "buffers" : [
        {
            "byteLength" : 69804,
            "uri" : "untitled.bin"
        }
    ]
}
